<?xml version="1.0" encoding="UTF-8"?>
<svg id="Capa_1" data-name="Capa 1" xmlns="http://www.w3.org/2000/svg" viewBox="0 0 1271.31 1030">
  <defs>
    <style>
      .cls-1 {
        stroke-width: 0px;
      }
    </style>
  </defs>
  <path class="cls-1" d="M235.22,778.14c-54.55,37.89-101.11,88.86-157.78,123.32-1.63-4.57-.33-12.9,1.63-18.13,19.11-53.25,29.56-107.97,26.13-165.46-4.57-75.79-33.48-137.69-83.3-187.67,59.94-5.39,119.89-10.45,179.67-9.15,31.85,34.3,50.31,76.44,53.41,127.24,2.61,40.83-4.9,79.54-18.46,117.44-1.31,3.43-2.29,8.98-1.31,12.41Z"/>
  <path class="cls-1" d="M850.51,871.89c9.47,60.11,40.34,109.6,72.52,158.11-.65-.49-1.47-.98-2.12-1.63-91.63-69.25-191.59-117.6-302.17-139-146.35-28.26-279.96,1.8-401.15,89.02,30.54-50.8,73.01-94.41,108.95-139.16,88.2-66.48,185.71-90,292.7-69.25,78.4,15.19,149.29,49.33,214.3,98.49,5.88,4.41,10.62,5.72,16.99,3.43Z"/>
  <path class="cls-1" d="M182.62,6.86c2.12-2.29,4.08-4.57,6.21-6.86,13.23,11.27,25.81,22.38,39.04,32.83,136.55,109.44,288.45,139.82,453.26,101.76,93.75-21.56,180.32-62.39,261.01-118.26,4.74-3.27,13.23-4.57,18.29-2.45-39.36,41-77.26,84.28-104.86,134.59-2.61.16-5.06.98-6.86,2.29-57.33,39.53-118.58,68.44-185.22,83.79-116.95,27.11-224.59,5.55-321.45-72.19-9.31-7.35-18.29-15.19-27.77-23.19-.16.16-.33.49-.49.65C278.83,87.22,231.3,45.57,182.62,6.86Z"/>
  <path class="cls-1" d="M490.74,465.06c0,1.3-.1,2.7-.28,4.2-.18,1.51-.41,2.81-.68,3.91s-.41,1.55-.41,1.35c-.18-.2-.59-.95-1.23-2.25-.64-1.3-1.14-2.65-1.5-4.06-.37-1.39-.37-2.65,0-3.75.36-1.1,1.37-1.55,3-1.35.73,0,1.1.65,1.1,1.95Z"/>
  <path class="cls-1" d="M805.52,637.3c-4.19,2.4-7.01,4.5-8.47,6.31-1.64,2.19-1.82,4.2-.54,6,2.36,3.4,6.19,3.1,11.46-.9,5.28-4.01,11.2-10.21,17.75-18.62-9.28,2.4-16.02,4.81-20.2,7.21ZM805.52,637.3c-4.19,2.4-7.01,4.5-8.47,6.31-1.64,2.19-1.82,4.2-.54,6,2.36,3.4,6.19,3.1,11.46-.9,5.28-4.01,11.2-10.21,17.75-18.62-9.28,2.4-16.02,4.81-20.2,7.21ZM477.93,373.98c-.89-2.06-2.16-3.6-3.8-4.62-1.63-1.03-3.49-1.54-5.58-1.54-1.27,0-2.89.26-4.88.78v23.09c1.32.28,2.49.48,3.5.62,1.02.14,1.89.2,2.61.2,2.58,0,4.81-1.09,6.68-3.29s2.81-5.05,2.81-8.54c0-2.4-.45-4.63-1.34-6.7ZM805.52,637.3c-4.19,2.4-7.01,4.5-8.47,6.31-1.64,2.19-1.82,4.2-.54,6,2.36,3.4,6.19,3.1,11.46-.9,5.28-4.01,11.2-10.21,17.75-18.62-9.28,2.4-16.02,4.81-20.2,7.21ZM805.52,637.3c-4.19,2.4-7.01,4.5-8.47,6.31-1.64,2.19-1.82,4.2-.54,6,2.36,3.4,6.19,3.1,11.46-.9,5.28-4.01,11.2-10.21,17.75-18.62-9.28,2.4-16.02,4.81-20.2,7.21ZM477.93,373.98c-.89-2.06-2.16-3.6-3.8-4.62-1.63-1.03-3.49-1.54-5.58-1.54-1.27,0-2.89.26-4.88.78v23.09c1.32.28,2.49.48,3.5.62,1.02.14,1.89.2,2.61.2,2.58,0,4.81-1.09,6.68-3.29s2.81-5.05,2.81-8.54c0-2.4-.45-4.63-1.34-6.7ZM477.93,373.98c-.89-2.06-2.16-3.6-3.8-4.62-1.63-1.03-3.49-1.54-5.58-1.54-1.27,0-2.89.26-4.88.78v23.09c1.32.28,2.49.48,3.5.62,1.02.14,1.89.2,2.61.2,2.58,0,4.81-1.09,6.68-3.29s2.81-5.05,2.81-8.54c0-2.4-.45-4.63-1.34-6.7ZM805.52,637.3c-4.19,2.4-7.01,4.5-8.47,6.31-1.64,2.19-1.82,4.2-.54,6,2.36,3.4,6.19,3.1,11.46-.9,5.28-4.01,11.2-10.21,17.75-18.62-9.28,2.4-16.02,4.81-20.2,7.21ZM805.52,637.3c-4.19,2.4-7.01,4.5-8.47,6.31-1.64,2.19-1.82,4.2-.54,6,2.36,3.4,6.19,3.1,11.46-.9,5.28-4.01,11.2-10.21,17.75-18.62-9.28,2.4-16.02,4.81-20.2,7.21ZM477.93,373.98c-.89-2.06-2.16-3.6-3.8-4.62-1.63-1.03-3.49-1.54-5.58-1.54-1.27,0-2.89.26-4.88.78v23.09c1.32.28,2.49.48,3.5.62,1.02.14,1.89.2,2.61.2,2.58,0,4.81-1.09,6.68-3.29s2.81-5.05,2.81-8.54c0-2.4-.45-4.63-1.34-6.7ZM477.93,373.98c-.89-2.06-2.16-3.6-3.8-4.62-1.63-1.03-3.49-1.54-5.58-1.54-1.27,0-2.89.26-4.88.78v23.09c1.32.28,2.49.48,3.5.62,1.02.14,1.89.2,2.61.2,2.58,0,4.81-1.09,6.68-3.29s2.81-5.05,2.81-8.54c0-2.4-.45-4.63-1.34-6.7ZM805.52,637.3c-4.19,2.4-7.01,4.5-8.47,6.31-1.64,2.19-1.82,4.2-.54,6,2.36,3.4,6.19,3.1,11.46-.9,5.28-4.01,11.2-10.21,17.75-18.62-9.28,2.4-16.02,4.81-20.2,7.21ZM805.52,637.3c-4.19,2.4-7.01,4.5-8.47,6.31-1.64,2.19-1.82,4.2-.54,6,2.36,3.4,6.19,3.1,11.46-.9,5.28-4.01,11.2-10.21,17.75-18.62-9.28,2.4-16.02,4.81-20.2,7.21ZM477.93,373.98c-.89-2.06-2.16-3.6-3.8-4.62-1.63-1.03-3.49-1.54-5.58-1.54-1.27,0-2.89.26-4.88.78v23.09c1.32.28,2.49.48,3.5.62,1.02.14,1.89.2,2.61.2,2.58,0,4.81-1.09,6.68-3.29s2.81-5.05,2.81-8.54c0-2.4-.45-4.63-1.34-6.7ZM477.93,373.98c-.89-2.06-2.16-3.6-3.8-4.62-1.63-1.03-3.49-1.54-5.58-1.54-1.27,0-2.89.26-4.88.78v23.09c1.32.28,2.49.48,3.5.62,1.02.14,1.89.2,2.61.2,2.58,0,4.81-1.09,6.68-3.29s2.81-5.05,2.81-8.54c0-2.4-.45-4.63-1.34-6.7ZM805.52,637.3c-4.19,2.4-7.01,4.5-8.47,6.31-1.64,2.19-1.82,4.2-.54,6,2.36,3.4,6.19,3.1,11.46-.9,5.28-4.01,11.2-10.21,17.75-18.62-9.28,2.4-16.02,4.81-20.2,7.21ZM805.52,637.3c-4.19,2.4-7.01,4.5-8.47,6.31-1.64,2.19-1.82,4.2-.54,6,2.36,3.4,6.19,3.1,11.46-.9,5.28-4.01,11.2-10.21,17.75-18.62-9.28,2.4-16.02,4.81-20.2,7.21ZM477.93,373.98c-.89-2.06-2.16-3.6-3.8-4.62-1.63-1.03-3.49-1.54-5.58-1.54-1.27,0-2.89.26-4.88.78v23.09c1.32.28,2.49.48,3.5.62,1.02.14,1.89.2,2.61.2,2.58,0,4.81-1.09,6.68-3.29s2.81-5.05,2.81-8.54c0-2.4-.45-4.63-1.34-6.7ZM477.93,373.98c-.89-2.06-2.16-3.6-3.8-4.62-1.63-1.03-3.49-1.54-5.58-1.54-1.27,0-2.89.26-4.88.78v23.09c1.32.28,2.49.48,3.5.62,1.02.14,1.89.2,2.61.2,2.58,0,4.81-1.09,6.68-3.29s2.81-5.05,2.81-8.54c0-2.4-.45-4.63-1.34-6.7ZM752.64,370.87c-1.97-2.17-4.59-3.25-7.84-3.25-1.44,0-3.39.26-5.84.77v23.1c.47,0,.88.01,1.23.02.34.02.63.02.85.02,4.82,0,8.45-1.15,10.89-3.44,2.45-2.29,3.67-5.21,3.67-8.76s-.99-6.29-2.96-8.46ZM805.52,637.3c-4.19,2.4-7.01,4.5-8.47,6.31-1.64,2.19-1.82,4.2-.54,6,2.36,3.4,6.19,3.1,11.46-.9,5.28-4.01,11.2-10.21,17.75-18.62-9.28,2.4-16.02,4.81-20.2,7.21ZM805.52,637.3c-4.19,2.4-7.01,4.5-8.47,6.31-1.64,2.19-1.82,4.2-.54,6,2.36,3.4,6.19,3.1,11.46-.9,5.28-4.01,11.2-10.21,17.75-18.62-9.28,2.4-16.02,4.81-20.2,7.21ZM477.93,373.98c-.89-2.06-2.16-3.6-3.8-4.62-1.63-1.03-3.49-1.54-5.58-1.54-1.27,0-2.89.26-4.88.78v23.09c1.32.28,2.49.48,3.5.62,1.02.14,1.89.2,2.61.2,2.58,0,4.81-1.09,6.68-3.29s2.81-5.05,2.81-8.54c0-2.4-.45-4.63-1.34-6.7ZM752.64,370.87c-1.97-2.17-4.59-3.25-7.84-3.25-1.44,0-3.39.26-5.84.77v23.1c.47,0,.88.01,1.23.02.34.02.63.02.85.02,4.82,0,8.45-1.15,10.89-3.44,2.45-2.29,3.67-5.21,3.67-8.76s-.99-6.29-2.96-8.46ZM1012.21,433.99c-139.66-61.75-133.12-240.27-133.12-240.27,0,0-139.66,85.75-307.57,99.47-167.91,13.88-264.11-68.44-264.11-68.44,36.59,160.4-51.94,271.14-51.94,271.14,94.24,154.52,29.23,309.69,29.23,309.69,311.81-205.15,591.12,24.66,591.12,24.66-25.15-183.59,136.39-248.6,136.39-248.6-55.21-78.89,0-147.65,0-147.65ZM800.12,418.52c2.11-.41,3.47-.94,4.09-1.6,1.27-1.31,2.67-3.97,4.21-7.98l17.76-45.7h1.3l17.57,46.19c1.42,3.71,2.7,6.12,3.86,7.22,1.15,1.11,2.75,1.73,4.81,1.87v1.51h-19.91v-1.51c2.01-.11,3.37-.48,4.08-1.11.7-.63,1.06-1.39,1.06-2.29,0-1.2-.5-3.1-1.49-5.69l-3.05-7.99h-19.55l-3.42,8.76c-.85,2.16-1.27,3.77-1.27,4.84,0,.84.37,1.59,1.1,2.23.73.64,2.31,1.06,4.75,1.25v1.51h-15.9v-1.51ZM776.03,418.52h1.79c2.09,0,3.6-.67,4.54-2.01.6-.87.89-2.97.89-6.31v-35.87c0-2.81-.16-4.67-.48-5.57-.25-.68-.76-1.27-1.53-1.76-1.09-.65-2.23-.98-3.42-.98h-1.79v-1.52h21.63v1.52h-1.82c-2.06,0-3.56.67-4.51,2.01-.62.87-.93,2.97-.93,6.3v35.87c0,2.82.16,4.67.49,5.57.25.69.77,1.27,1.56,1.76,1.07.66,2.2.99,3.39.99h1.82v1.51h-21.63v-1.51ZM724.59,418.52h1.9c2.13,0,3.66-.77,4.58-2.3.52-.84.78-2.85.78-6.02v-35.87c0-3.49-.35-5.66-1.04-6.51-.97-1.2-2.41-1.8-4.32-1.8h-1.9v-1.52h18.39c5.36,0,9.31.43,11.86,1.29,2.54.86,4.7,2.45,6.47,4.75,1.78,2.31,2.66,5.06,2.66,8.26,0,3.41-1.01,6.37-3.03,8.88s-5.16,4.29-9.4,5.33l10.42,15.93c2.39,3.65,4.43,6.08,6.14,7.28,1.72,1.21,3.95,1.97,6.71,2.3v1.51h-13.48l-17.09-25.96c-1.26.06-2.29.08-3.09.08-.32,0-.67,0-1.04-.02-.37-.01-.75-.03-1.15-.06v16.13c0,3.5.35,5.67,1.04,6.52.94,1.2,2.36,1.8,4.24,1.8h1.98v1.51h-21.63v-1.51ZM678.28,418.52h1.79c1.19,0,2.32-.32,3.38-.94.8-.44,1.34-1.1,1.62-1.97.29-.87.43-2.66.43-5.36v-36.08c0-3.52-.32-5.69-.97-6.51-.89-1.09-2.38-1.64-4.46-1.64h-1.79v-1.52h38.9l.56,12.17h-1.45c-.52-2.92-1.1-4.93-1.73-6.02-.64-1.09-1.57-1.93-2.81-2.5-1-.41-2.75-.62-5.25-.62h-13.85v21.95h11.09c2.88,0,4.8-.47,5.77-1.43,1.29-1.25,2.01-3.47,2.16-6.63h1.38v19.33h-1.38c-.35-2.71-.69-4.44-1.04-5.21-.45-.95-1.18-1.7-2.2-2.25-1.02-.54-2.58-.82-4.69-.82h-11.09v18.31c0,2.45.1,3.95.3,4.48.19.53.54.96,1.04,1.27.49.32,1.44.47,2.83.47h8.56c2.85,0,4.93-.22,6.22-.65,1.29-.44,2.53-1.3,3.72-2.58,1.54-1.69,3.11-4.25,4.73-7.66h1.49l-4.36,13.92h-38.9v-1.51ZM633.05,364.5h41.21l.56,13.03h-1.42c-.27-2.3-.64-3.93-1.11-4.92-.77-1.58-1.8-2.75-3.07-3.5-1.28-.75-2.96-1.13-5.05-1.13h-7.11v42.43c0,3.41.34,5.54,1.01,6.39.94,1.14,2.39,1.72,4.35,1.72h1.75v1.51h-21.4v-1.51h1.78c2.14,0,3.65-.71,4.54-2.13.55-.88.82-2.87.82-5.98v-42.43h-6.06c-2.36,0-4.04.2-5.03.58-1.29.52-2.4,1.51-3.31,2.99-.92,1.47-1.47,3.47-1.64,5.98h-1.42l.6-13.03ZM585.14,418.52h1.79c1.19,0,2.32-.32,3.39-.94.79-.44,1.33-1.1,1.61-1.97.29-.87.43-2.66.43-5.36v-36.08c0-3.52-.32-5.69-.96-6.51-.9-1.09-2.39-1.64-4.47-1.64h-1.79v-1.52h38.9l.56,12.17h-1.45c-.52-2.92-1.1-4.93-1.73-6.02-.64-1.09-1.57-1.93-2.81-2.5-1-.41-2.74-.62-5.25-.62h-13.85v21.95h11.09c2.88,0,4.81-.47,5.77-1.43,1.29-1.25,2.01-3.47,2.16-6.63h1.38v19.33h-1.38c-.34-2.71-.69-4.44-1.04-5.21-.45-.95-1.18-1.7-2.2-2.25-1.01-.54-2.58-.82-4.69-.82h-11.09v18.31c0,2.45.1,3.95.3,4.48.2.53.54.96,1.04,1.27.5.32,1.44.47,2.83.47h8.56c2.86,0,4.93-.22,6.22-.65,1.29-.44,2.53-1.3,3.72-2.58,1.54-1.69,3.12-4.25,4.73-7.66h1.49l-4.36,13.92h-38.9v-1.51ZM538.54,418.52h1.89c2.14,0,3.66-.77,4.58-2.3.52-.87.78-2.89.78-6.06v-35.83c0-3.46-.34-5.63-1.04-6.51-.97-1.2-2.41-1.8-4.32-1.8h-1.89v-1.52h22.85v1.52c-2.68-.03-4.56.25-5.64.82-1.08.57-1.82,1.3-2.21,2.17-.4.87-.6,2.96-.6,6.26v34.89c0,2.27.2,3.83.6,4.67.29.58.75,1,1.37,1.27s2.56.41,5.81.41h3.69c3.87,0,6.58-.31,8.15-.94,1.56-.63,2.99-1.74,4.28-3.34s2.58-4.11,3.87-7.55l1.23.28-4.32,15.07h-39.08v-1.51ZM492,418.52h1.79c1.19,0,2.32-.32,3.39-.94.79-.44,1.33-1.1,1.62-1.97.28-.87.42-2.66.42-5.36v-36.08c0-3.52-.32-5.69-.96-6.51-.9-1.09-2.39-1.64-4.47-1.64h-1.79v-1.52h38.9l.56,12.17h-1.45c-.52-2.92-1.1-4.93-1.73-6.02-.63-1.09-1.57-1.93-2.81-2.5-1-.41-2.74-.62-5.25-.62h-13.85v21.95h11.09c2.88,0,4.81-.47,5.77-1.43,1.29-1.25,2.01-3.47,2.16-6.63h1.38v19.33h-1.38c-.34-2.71-.69-4.44-1.04-5.21-.45-.95-1.18-1.7-2.2-2.25-1.01-.54-2.58-.82-4.69-.82h-11.09v18.31c0,2.45.1,3.95.3,4.48.2.53.54.96,1.04,1.27.5.32,1.44.47,2.83.47h8.56c2.86,0,4.93-.22,6.22-.65,1.29-.44,2.53-1.3,3.72-2.58,1.54-1.69,3.12-4.25,4.73-7.66h1.49l-4.36,13.92h-38.9v-1.51ZM449.3,418.52h1.9c2.14,0,3.66-.77,4.58-2.3.5-.84.75-2.85.75-6.02v-35.87c0-3.49-.34-5.66-1.01-6.51-.97-1.2-2.41-1.8-4.32-1.8h-1.9v-1.52h18.51c4.51,0,8.07.52,10.68,1.54,2.61,1.02,4.8,2.75,6.59,5.18s2.68,5.31,2.68,8.64c0,4.53-1.36,8.22-4.08,11.06-2.71,2.84-6.56,4.26-11.52,4.26-1.21,0-2.53-.1-3.94-.29-1.42-.19-2.93-.48-4.55-.86v16.17c0,3.5.35,5.67,1.05,6.52.94,1.2,2.37,1.8,4.28,1.8h1.93v1.51h-21.63v-1.51ZM409.1,602.76c-2.91,3-5.73,5.9-8.46,8.71-2.73,2.8-6.19,4.21-10.37,4.21-2.37,0-5.28-1.36-8.74-4.06s-5.64-6.96-6.55-12.77c-.73-4.99-.92-10-.55-15.01.36-5,1.05-9.91,2.05-14.72,1-4.8,2.23-9.31,3.69-13.51,1.45-4.2,2.82-8.01,4.09-11.41,2.55-6.41,5.55-13.26,9.01-20.57s6.73-14.17,9.83-20.58c3.09-6.4,5.68-11.91,7.78-16.52,2.09-4.6,3.04-7.51,2.87-8.71-.37-1.4-.92-2.1-1.64-2.1-1.28,0-3.28,1.05-6.01,3.15-2.73,2.11-5.96,5.41-9.69,9.92-3.73,4.5-7.87,10.46-12.42,17.86-4.55,7.41-9.28,16.33-14.2,26.73.18,0-.18.81-1.09,2.41-.91,1.6-1.91,3.65-3,6.15-1.1,2.51-2.05,5.16-2.87,7.96-.82,2.81-1.05,5.31-.68,7.51,0,1.4.54,2.7,1.64,3.91h1.63c.91,0,1.73.1,2.46.29.73.21,1.18.71,1.36,1.51.37,1.6-.23,3.05-1.77,4.35-1.55,1.31-3.32,1.95-5.32,1.95-1.82,0-3.65-.6-5.46-1.8-1.83-1.2-3.46-2.8-4.92-4.8s-2.73-4.21-3.82-6.61c-1.09-2.4-1.82-4.7-2.18-6.91-.73-4.4-.32-9.71,1.22-15.92,1.55-6.2,4.6-14.41,9.15-24.62l.55-.6c4-8.61,8.78-15.87,14.33-21.78,5.55-5.9,11.15-10.61,16.79-14.11,5.64-3.5,11.06-6.01,16.24-7.51,5.19-1.5,9.51-2.26,12.97-2.26.91,0,1.78.11,2.6.31.82.2,1.5.3,2.04.3,3.46,1.4,6.56,3.35,9.29,5.85,2.73,2.51,4.45,5.86,5.18,10.06.37,1.81.41,3.96.14,6.46-.27,2.51-1.05,5.06-2.32,7.66-3.1,6.61-6.78,14.32-11.06,23.13-4.28,8.81-8.51,17.71-12.69,26.73-4.19,9-7.97,17.56-11.33,25.67-3.37,8.11-5.69,14.77-6.96,19.98-.37,1.6-.64,3.2-.82,4.8-.19,1.4-.32,2.9-.41,4.51-.1,1.6.04,3.1.41,4.5,0,.6.18,1.31.54,2.1,2.36-1.8,5.6-4.85,9.69-9.16,4.1-4.3,8.65-9.46,13.65-15.46,5.01-6.01,10.29-12.62,15.84-19.83,5.55-7.2,11.06-14.71,16.52-22.52s10.73-15.67,15.83-23.58c5.1-7.9,9.65-15.46,13.65-22.67.91-2.41,1.96-4.55,3.14-6.46,1.18-1.9,1.59-3.65,1.23-5.26-.37-1.99-1.05-3.95-2.05-5.85-1-1.9-1.68-3.95-2.05-6.16-.54-3.4-.36-6.15.55-8.26.91-2.1,2.14-3.7,3.69-4.8,1.54-1.1,3.27-1.75,5.19-1.96,1.91-.19,3.77-.19,5.59,0,.55,0,1.59.31,3.14.91,1.54.6,3.23,1.55,5.05,2.85s3.5,3,5.05,5.11c1.55,2.1,2.5,4.65,2.87,7.65.54,2.81.54,5.41,0,7.81-.55,2.41-1.28,4.51-2.19,6.31,11.65,3.6,14.91,3.08,27.61.53,60.7-12.19,33.85,8.59,33.85,8.59-14.56,2.75-44.38,3.25-44.38,3.25-13.1.1-7.43,2.64-23.63-.96-.36.4-2.46,3.46-6.28,9.16-3.82,5.71-9.51,13.42-17.06,23.13-7.56,9.71-16.93,21.02-28.12,33.93-11.19,12.92-24.16,26.88-38.91,41.9ZM922.09,563.42c0,.8-.18,1.7-.54,2.7-.37,1-.82,2.15-1.37,3.45-.54,1.31-1.55,2.76-3,4.36-1.64,1.8-3.65,4.11-6.01,6.91-2.36,2.8-4.73,5.5-7.1,8.1-2.36,2.61-4.5,4.92-6.41,6.91-1.91,2.01-3.14,3.31-3.69,3.91-3.1,3-6.28,4.65-9.55,4.95-3.28.3-6.38-.65-9.29-2.85-.54-.4-1.09-.85-1.63-1.35-.55-.5-1.1-1.05-1.64-1.66-1.64,2.21-3.28,4.56-4.92,7.06-1.63,2.51-3.46,4.96-5.46,7.36,4.19-.4,8.15-.6,11.88-.6s7.14.2,10.24.6c4.91.4,8.6,1.4,11.05,3.01,2.46,1.59,4.19,3.4,5.19,5.4s1.5,3.91,1.5,5.71v3.9c-.73,2.2-1.54,4.1-2.45,5.71-.92,1.4-1.87,2.45-2.87,3.15-1,.7-2.14.45-3.41-.75-.92-.8-2.42-2-4.51-3.6-2.09-1.61-4.82-3.21-8.19-4.81s-7.37-2.96-12.01-4.05c-4.64-1.11-9.97-1.66-15.97-1.66-4.01,4.81-8.06,9.36-12.15,13.67-4.1,4.3-8.23,8.11-12.42,11.41-4.19,3.31-8.28,5.86-12.29,7.66-4,1.8-7.82,2.7-11.46,2.7-2.55,0-4.74-.4-6.56-1.2-1.82-.8-3.27-1.7-4.37-2.7-1.09-1.01-1.91-1.95-2.45-2.85-.55-.91-.91-1.46-1.1-1.66-.72-1.4-1.22-3.5-1.5-6.3-.27-2.81.96-5.86,3.69-9.16,2.73-3.3,7.46-6.71,14.2-10.22,6.73-3.5,16.74-6.75,30.03-9.76,3.09-4.4,6.18-8.91,9.28-13.51,3.09-4.6,6.1-9.21,9.01-13.82-5.1,5.21-9.42,8.87-12.97,10.97-3.55,2.1-6.33,3.45-8.33,4.05h-1.36v.3h-3.01c-1.45-.39-2.45-.7-3-.9h-.27c-.18,0-.27-.04-.27-.15,0-.1-.09-.15-.28-.15-1.45-.6-2.18-1.1-2.18-1.5-3.82-3-5.55-7.41-5.19-13.22,0-.73.05-1.48.15-2.27-.59.66-1.19,1.32-1.79,1.98-2.36,2.6-4.5,4.95-6.41,7.05-1.91,2.11-3.14,3.46-3.69,4.06-3.09,3-6.28,4.6-9.55,4.8-3.28.2-6.47-.79-9.56-3-2.37-1.8-4.73-4.81-7.1-9.01-2.37-4.21-3-9.51-1.91-15.92.73-2.2,1.59-4.85,2.6-7.96.99-3.1,2.32-6.05,3.96-8.86,1.26-2.2,2.59-4.45,3.95-6.75,1.37-2.3,2.78-4.56,4.23-6.76.37-.6.82-1.3,1.37-2.1.55-.8,1-1.66,1.37-2.56.36-.9.54-1.65.54-2.25s-.46-1-1.36-1.2c-.55-.2-1.74.35-3.55,1.65-1.83,1.31-4.01,3.01-6.55,5.11-2.56,2.1-5.33,4.55-8.33,7.35-3.01,2.81-6.06,5.71-9.15,8.71-.37.6-.68,1.11-.95,1.5-.28.41-.6.81-.96,1.21l-3.82,5.7c-.18.41-.37.71-.55.9-.18.2-.36.51-.54.91-.37.4-.6.7-.69.9-.09.2-.23.4-.41.6v.3c-.54,1-1.05,1.9-1.5,2.7s-.86,1.61-1.23,2.4c-.54,1.41-1.09,2.81-1.63,4.21-.37,1.2-.78,2.5-1.23,3.9-.46,1.4-.69,2.81-.69,4.21-.36,2.2,0,3.9,1.1,5.1.91,0,1.72.1,2.45.3,1.27.4,1.55,1.61.82,3.61,0,.2-.09.4-.27.6v.3c-.37.6-.82,1.1-1.36,1.5-1.1,1.2-3.01,2.1-5.74,2.7-2.37.4-4.28.1-5.73-.9h-.27c-.19,0-.37-.1-.55-.3-1.28-.6-2.09-1.1-2.46-1.5-3.46-2.8-5.18-7.21-5.18-13.21.17-3.21.77-6.61,1.77-10.22,1-3.6,2.32-7.36,3.96-11.26s3.45-7.86,5.46-11.86c2-4.01,4.09-7.81,6.28-11.42.72-.99,1.27-2.14,1.64-3.45.36-1.3-.1-2.05-1.37-2.25-.73-.2-2.28.65-4.64,2.55-2.37,1.91-5.19,4.46-8.46,7.66-3.28,3.21-6.83,6.76-10.65,10.66-3.82,3.91-7.47,7.76-10.92,11.57,0,.2-.05.29-.14.29s-.14.11-.14.31c-.36.4-.59.7-.68.9-.09.2-.23.4-.41.6v.3c-.54,1-1.05,1.9-1.5,2.7-.46.8-.86,1.61-1.23,2.4-.18,0-.27.11-.27.3,0,.21-.05.41-.14.6-.09.21-.13.41-.13.6-.55,1.21-1.14,2.86-1.78,4.96-.64,2.1-1.05,4.06-1.23,5.86,0,2.4.37,4.1,1.1,5.1h1.91c.72.2,1.31.6,1.77,1.2.45.6.41,1.5-.13,2.71,0,.2-.05.3-.14.3s-.14.1-.14.3v.3c-.18.2-.32.4-.41.6-.09.2-.32.4-.68.6-.18.4-.73.8-1.64,1.2-1.09,1.01-2.54,1.6-4.37,1.8-2.36.2-4.36-.09-6-.9h-.28c-.17,0-.27-.05-.27-.15s-.09-.15-.27-.15c-1.09-.6-1.82-1.1-2.19-1.5-3.59-2.83-5.34-6.89-5.22-12.19-1.83,2.2-3.46,4.21-4.88,6.03-1.64,2.11-2.73,3.46-3.27,4.06-2.73,3-5.78,4.65-9.15,4.95-3.37.3-6.6-.65-9.69-2.85-1.64-1.2-3.37-2.75-5.19-4.65-1.82-1.91-3.37-4.26-4.64-7.06-1.28-2.8-2.05-5.91-2.32-9.31-.27-3.41.31-7.21,1.77-11.42-5.09,8.62-10.1,16.02-15.01,22.23-2.19,2.6-4.42,5.06-6.69,7.36-2.28,2.3-4.6,4.16-6.96,5.55-2.37,1.4-4.64,2.25-6.83,2.56-2.18.29-4.28-.26-6.28-1.66-3.82-3-6.69-6.45-8.6-10.36-1.65-3.37-2.72-6.93-3.22-10.67-1.15,1.44-2.31,2.84-3.46,4.22-2.19,2.6-4.1,4.9-5.74,6.9-1.63,2-2.73,3.3-3.27,3.91-2.73,3.2-6.24,4.9-10.51,5.1-4.28.2-7.97-.79-11.06-3-2.55-1.8-5.19-4.81-7.92-9.01-1.17-1.8-2.04-3.8-2.6-6.01-.59.71-1.18,1.41-1.77,2.11-2.18,2.6-4.09,4.95-5.73,7.05-1.64,2.11-2.73,3.46-3.28,4.06-2.73,3-5.78,4.65-9.14,4.95-3.37.3-6.6-.65-9.69-2.85-1.64-1.2-3.37-2.75-5.19-4.65-1.82-1.91-3.37-4.26-4.64-7.06-1.28-2.8-2.05-5.91-2.32-9.31-.28-3.41.31-7.21,1.77-11.42-5.1,8.62-10.1,16.02-15.01,22.23-2.19,2.6-4.42,5.06-6.69,7.36-2.28,2.3-4.6,4.16-6.97,5.55-2.36,1.4-4.64,2.25-6.82,2.56-2.18.29-4.28-.26-6.28-1.66-3.82-3-6.69-6.45-8.6-10.36-1.91-3.9-3.05-8.06-3.41-12.46-.36-4.4-.04-8.81.95-13.22,1-4.4,2.51-8.5,4.51-12.31,1.82-3.6,4.6-7.55,8.33-11.86,3.72-4.3,7.95-8.26,12.69-11.87l1.64-1.2c.36-.4.72-.65,1.09-.75.36-.1.82-.34,1.36-.75,4.74-3.2,10.74-6.01,18.02-8.41,7.28-2.4,15.02-2.8,23.21-1.2,2.18.6,4.19,1.5,6.01,2.7,1.45,1.01,2.77,2.51,3.96,4.51,1.18,2,1.86,4.61,2.04,7.81-.18,1.4-.32,2.4-.41,3-.09.6-.32,1.31-.68,2.1-.55,1.01-1.09,1.61-1.64,1.81v.29c-.73.41-1.27.6-1.64.6-.54,0-1-.09-1.36-.29-.91-.4-1.28-1.3-1.09-2.71v-1.8c-.37-2.4-2.1-3.8-5.19-4.2-1.64-.4-4.55,0-8.74,1.2-4.19,1.2-9.19,3.8-15.01,7.8-1.09.61-2.14,1.31-3.14,2.11s-2.05,1.6-3.14,2.4c-.37.41-.64.65-.82.75-.18.1-.46.35-.82.75h-.27c-2.55,2.21-5.28,4.91-8.19,8.11-2.73,3.41-5.51,7.16-8.33,11.27-2.82,4.1-5.15,8.01-6.96,11.7-1.82,3.71-2.92,6.97-3.28,9.77s.55,4.61,2.73,5.4c1.82.6,4.78-.94,8.88-4.65,4.09-3.71,8.36-8.16,12.83-13.37,4.45-5.2,8.73-10.51,12.83-15.91,4.09-5.41,7.14-9.51,9.14-12.32.18,0,.28-.05.28-.15s.09-.15.27-.15c1.64-2.2,3.55-4.15,5.73-5.85,2.19-1.71,4.55-2.05,7.1-1.06,4.73,1.61,7.73,3.91,9.01,6.91,1.27,3,1.18,5.91-.27,8.71v.6c-.19,0-.28.11-.28.3,0,.21-.04.3-.13.3-.1,0-.14.11-.14.3l-.27.3v.3l-.27.31c-.37.4-.64.89-.82,1.5-.19.6-.46,1.1-.82,1.5v.3c-.19,0-.27.1-.27.3v.3c-.19,0-.28.1-.28.3l-.27.3v.3c-.18,0-.27.1-.27.3-1.64,3-3.19,5.91-4.65,8.71-1.45,2.81-2.59,5.46-3.41,7.96s-1.23,4.65-1.23,6.45.55,3.11,1.64,3.91c.91.6,2.09.7,3.55.3,1.09-.4,2.5-1.2,4.23-2.4,1.73-1.21,3.69-3.31,5.87-6.31,2.19-2.8,4.28-5.51,6.28-8.11,1.45-1.89,2.81-3.68,4.08-5.36.34-1.19.76-2.46,1.25-3.8,1.36-3.7,3.05-7.55,5.05-11.56,2-4,4.19-8.01,6.55-12.01,2.36-4.01,4.64-7.71,6.82-11.12,7.83-11.41,13.88-20.67,18.16-27.78,4.27-7.1,7.51-12.66,9.69-16.66,2.36-4.81,3.91-8.31,4.64-10.52,0-1.2-.09-2-.27-2.4-.18,0-.27-.2-.27-.6-.19-.2-.28-.8-.28-1.8-.18-1,0-1.9.55-2.7.36-.6.95-1.15,1.77-1.66.82-.5,2.14-.75,3.96-.75,1.64,0,3.42.65,5.33,1.95,1.91,1.31,3.59,2.91,5.05,4.81,1.45,1.9,2.5,4.1,3.14,6.61.63,2.5.5,5.06-.41,7.66-.19,1-.73,2.3-1.64,3.9-1.64,3.41-4.46,8.31-8.46,14.72-4.01,6.4-8.29,13.16-12.84,20.27-4.55,7.11-8.96,14.02-13.24,20.72-4.28,6.71-7.51,11.86-9.69,15.47l-3.55,5.7c-3.46,5.81-5.73,10.72-6.82,14.72-1.09,4.01-.55,6.81,1.63,8.41,1.46.6,3.1.7,4.92.3,1.45-.4,3.18-1.2,5.19-2.4,2-1.2,4.09-3.31,6.28-6.31,2.18-2.8,4.27-5.5,6.27-8.11,2.01-2.6,3.83-5,5.47-7.21.4-.49.8-.97,1.19-1.44.97-3.63,2.3-7.06,3.99-10.27,1.82-3.6,4.6-7.55,8.33-11.86,3.73-4.3,7.96-8.26,12.69-11.87l1.64-1.2c.36-.4.73-.65,1.09-.75.37-.1.82-.34,1.37-.75,4.73-3.2,10.74-6.01,18.02-8.41,7.27-2.4,15.01-2.8,23.2-1.2,2.19.6,4.19,1.5,6.01,2.7,1.45,1.01,2.77,2.51,3.96,4.51,1.18,2,1.86,4.61,2.05,7.81-.19,1.4-.32,2.4-.41,3-.1.6-.32,1.31-.69,2.1-.54,1.01-1.09,1.61-1.63,1.81v.29c-.73.41-1.28.6-1.64.6-.55,0-1.01-.09-1.37-.29-.91-.4-1.27-1.3-1.09-2.71v-1.8c-.37-2.4-2.09-3.8-5.19-4.2-1.64-.4-4.55,0-8.73,1.2-4.19,1.2-9.2,3.8-15.02,7.8-1.09.61-2.14,1.31-3.14,2.11s-2.05,1.6-3.14,2.4c-.37.41-.64.65-.82.75-.18.1-.45.35-.82.75h-.27c-2.55,2.21-5.28,4.91-8.19,8.11-2.73,3.41-5.51,7.16-8.33,11.27-2.82,4.1-5.14,8.01-6.96,11.7-1.82,3.71-2.91,6.97-3.27,9.77-.37,2.8.54,4.61,2.73,5.4,1.81.6,4.77-.94,8.87-4.65,4.09-3.71,8.37-8.16,12.83-13.37,4.46-5.2,8.74-10.51,12.83-15.91,4.1-5.41,7.14-9.51,9.15-12.32.18,0,.27-.05.27-.15s.09-.15.27-.15c1.64-2.2,3.55-4.15,5.74-5.85,2.18-1.71,4.54-2.05,7.1-1.06,4.73,1.61,7.73,3.91,9,6.91s1.19,5.91-.27,8.71v.6c-.18,0-.27.11-.27.3,0,.21-.05.3-.14.3s-.13.11-.13.3l-.28.3v.3l-.27.31c-.37.4-.64.89-.82,1.5-.18.6-.46,1.1-.82,1.5v.3c-.18,0-.27.1-.27.3v.3c-.19,0-.28.1-.28.3l-.27.3v.3c-.18,0-.27.1-.27.3-1.64,3-3.19,5.91-4.64,8.71-1.46,2.81-2.6,5.46-3.41,7.96-.82,2.5-1.23,4.65-1.23,6.45s.54,3.11,1.63,3.91c.91.6,2.09.7,3.55.3,1.1-.4,2.5-1.2,4.24-2.4,1.72-1.21,3.68-3.31,5.87-6.31,2.18-2.8,4.27-5.51,6.27-8.11,2.01-2.6,3.83-5,5.46-7.21.28-.34.56-.68.83-1.01h0c1.18-2.96,2.54-5.98,4.09-9.05,3.28-6.5,6.74-12.66,10.37-18.47,1.64-3.2,2.91-6.2,3.83-9.01v-3.6c-.19-.4-.28-1-.28-1.8,0-1,.28-1.9.82-2.71.36-.6,1-1.14,1.91-1.65.91-.5,2.28-.75,4.1-.75.36,0,.68.05.95.15.28.1.59.15.96.15,1.64.6,3.32,1.55,5.05,2.86,1.73,1.3,3.28,2.85,4.64,4.65,1.37,1.8,2.28,3.8,2.73,6.01.45,2.2.23,4.4-.68,6.6v.3c5.82-5.6,11.46-10.31,16.93-14.11,5.46-3.8,9.91-5.51,13.37-5.11h.28c4.73.6,8.09,2.46,10.1,5.56,2,3.1,2.55,6.96,1.64,11.56,5.82-5,11.33-9.21,16.51-12.61,5.19-3.4,9.42-4.91,12.7-4.51h.27c4,.6,6.78,2.06,8.33,4.36,1.54,2.3,2.23,5.1,2.05,8.4-.19,3.31-1.19,6.97-3.01,10.97-1.82,4.01-4.09,8.01-6.82,12.01-.37.41-.91,1.2-1.64,2.41-.37.6-.73,1.15-1.09,1.64-.37.51-.73.96-1.09,1.36l-3.83,5.7c-3.82,5.81-6.73,10.72-8.73,14.72-2.01,4.01-1.91,6.81.27,8.41.72.6,1.82.7,3.28.3,1.09-.4,2.54-1.2,4.36-2.4,1.82-1.2,4-3.2,6.56-6.01,2.54-2.8,4.91-5.56,7.1-8.26,2.18-2.7,4.18-5.15,6-7.36.99-1.19,1.95-2.32,2.9-3.41h.01c.85-2,1.8-4.01,2.82-6.05,3.28-6.5,6.74-12.66,10.38-18.47h-.27c.9-1.6,1.72-3.25,2.45-4.95.73-1.7,1.27-3.05,1.64-4.06v-3.9c-.18-.2-.27-.7-.27-1.5,0-1,.27-1.9.82-2.71.36-.6.99-1.15,1.91-1.65.91-.5,2.27-.75,4.09-.75.91,0,1.55.1,1.91.3,1.64.6,3.32,1.55,5.05,2.85,1.73,1.31,3.28,2.86,4.65,4.66,1.36,1.8,2.27,3.81,2.73,6.01.45,2.2.22,4.4-.69,6.6-.36.6-.68,1.26-.95,1.96s-.59,1.45-.96,2.25c-.36.6-.77,1.2-1.22,1.8-.46.6-1.05,1.4-1.78,2.4h.27c-.36.4-.68.81-.95,1.21-.28.4-.6.8-.96,1.19-3.46,4.81-6.1,8.61-7.92,11.42l-3.82,5.7c-.18.41-.54.91-1.09,1.51v.3c-.55.6-.91,1.1-1.09,1.5-.55,1-1.05,1.9-1.5,2.7-.46.8-.87,1.61-1.23,2.4-.19.2-.28.41-.28.6,0,.2-.04.35-.13.46-.1.1-.14.35-.14.75-.54,1.2-1.09,2.6-1.64,4.2-.54,1.6-.91,3.41-1.09,5.4,0,2.01.18,3.31.55,3.91.91,1.4,2.64,1.2,5.18-.6,2.55-1.8,5.55-4.55,9.01-8.26,3.46-3.7,7.19-8.06,11.2-13.06,4-5.01,7.91-10.06,11.74-15.17,3.82-5.11,7.37-9.91,10.65-14.42,3.27-4.5,5.91-8.15,7.91-10.96,1.1-1.6,1.73-2.7,1.91-3.3h.28v-.3l.27-.3c.36-.4,1.05-1.2,2.05-2.41,1-1.2,2.59-2.29,4.78-3.3,1.63-.8,3.18-.9,4.64-.3,4.18,1.61,6.87,3.75,8.05,6.46,1.18,2.7,1.23,5.36.14,7.96l-1.09,1.8c-.37.6-1.19,2.1-2.46,4.5-1.28,2.41-3.74,6.21-7.37,11.41-.55,1.01-1.1,1.91-1.64,2.71-.55.8-1.19,1.61-1.91,2.4l-1.64,2.7c-.37.41-.73.9-1.09,1.5-.37.61-.73,1.11-1.1,1.51l-3.82,5.7c0,.21-.09.41-.27.6-.55,1.01-1.46,2.56-2.73,4.66-1.28,2.1-2.91,4.65-4.91,7.66-2.56,5.21-2.73,8.61-.55,10.21.72.6,1.82.7,3.28.3,1.09-.4,2.54-1.2,4.36-2.4,1.82-1.21,4-3.31,6.56-6.31,2.54-2.8,4.91-5.51,7.09-8.11,2.19-2.6,4.19-5,6.01-7.21,2-2.4,3.91-4.7,5.73-6.9,1.46-1.81,2.73-3.11,3.83-3.91.91-.6,1.77-.6,2.59,0,.82.6,1.04,2.3.68,5.11ZM824.8,375.97l-8.78,22.44h17.34l-8.56-22.44ZM797.05,643.61c-1.64,2.19-1.82,4.2-.54,6,2.36,3.4,6.19,3.1,11.46-.9,5.28-4.01,11.2-10.21,17.75-18.62-9.28,2.4-16.02,4.81-20.2,7.21-4.19,2.4-7.01,4.5-8.47,6.31ZM741.04,391.53c4.82,0,8.45-1.15,10.89-3.44,2.45-2.29,3.67-5.21,3.67-8.76s-.99-6.29-2.96-8.46-4.59-3.25-7.84-3.25c-1.44,0-3.39.26-5.84.77v23.1c.47,0,.88.01,1.23.02.34.02.63.02.85.02ZM469.78,392.51c2.58,0,4.81-1.09,6.68-3.29s2.81-5.05,2.81-8.54c0-2.4-.45-4.63-1.34-6.7-.89-2.06-2.16-3.6-3.8-4.62-1.63-1.03-3.49-1.54-5.58-1.54-1.27,0-2.89.26-4.88.78v23.09c1.32.28,2.49.48,3.5.62,1.02.14,1.89.2,2.61.2ZM752.64,370.87c-1.97-2.17-4.59-3.25-7.84-3.25-1.44,0-3.39.26-5.84.77v23.1c.47,0,.88.01,1.23.02.34.02.63.02.85.02,4.82,0,8.45-1.15,10.89-3.44,2.45-2.29,3.67-5.21,3.67-8.76s-.99-6.29-2.96-8.46ZM477.93,373.98c-.89-2.06-2.16-3.6-3.8-4.62-1.63-1.03-3.49-1.54-5.58-1.54-1.27,0-2.89.26-4.88.78v23.09c1.32.28,2.49.48,3.5.62,1.02.14,1.89.2,2.61.2,2.58,0,4.81-1.09,6.68-3.29s2.81-5.05,2.81-8.54c0-2.4-.45-4.63-1.34-6.7ZM805.52,637.3c-4.19,2.4-7.01,4.5-8.47,6.31-1.64,2.19-1.82,4.2-.54,6,2.36,3.4,6.19,3.1,11.46-.9,5.28-4.01,11.2-10.21,17.75-18.62-9.28,2.4-16.02,4.81-20.2,7.21ZM805.52,637.3c-4.19,2.4-7.01,4.5-8.47,6.31-1.64,2.19-1.82,4.2-.54,6,2.36,3.4,6.19,3.1,11.46-.9,5.28-4.01,11.2-10.21,17.75-18.62-9.28,2.4-16.02,4.81-20.2,7.21ZM752.64,370.87c-1.97-2.17-4.59-3.25-7.84-3.25-1.44,0-3.39.26-5.84.77v23.1c.47,0,.88.01,1.23.02.34.02.63.02.85.02,4.82,0,8.45-1.15,10.89-3.44,2.45-2.29,3.67-5.21,3.67-8.76s-.99-6.29-2.96-8.46ZM477.93,373.98c-.89-2.06-2.16-3.6-3.8-4.62-1.63-1.03-3.49-1.54-5.58-1.54-1.27,0-2.89.26-4.88.78v23.09c1.32.28,2.49.48,3.5.62,1.02.14,1.89.2,2.61.2,2.58,0,4.81-1.09,6.68-3.29s2.81-5.05,2.81-8.54c0-2.4-.45-4.63-1.34-6.7ZM477.93,373.98c-.89-2.06-2.16-3.6-3.8-4.62-1.63-1.03-3.49-1.54-5.58-1.54-1.27,0-2.89.26-4.88.78v23.09c1.32.28,2.49.48,3.5.62,1.02.14,1.89.2,2.61.2,2.58,0,4.81-1.09,6.68-3.29s2.81-5.05,2.81-8.54c0-2.4-.45-4.63-1.34-6.7ZM805.52,637.3c-4.19,2.4-7.01,4.5-8.47,6.31-1.64,2.19-1.82,4.2-.54,6,2.36,3.4,6.19,3.1,11.46-.9,5.28-4.01,11.2-10.21,17.75-18.62-9.28,2.4-16.02,4.81-20.2,7.21ZM805.52,637.3c-4.19,2.4-7.01,4.5-8.47,6.31-1.64,2.19-1.82,4.2-.54,6,2.36,3.4,6.19,3.1,11.46-.9,5.28-4.01,11.2-10.21,17.75-18.62-9.28,2.4-16.02,4.81-20.2,7.21ZM477.93,373.98c-.89-2.06-2.16-3.6-3.8-4.62-1.63-1.03-3.49-1.54-5.58-1.54-1.27,0-2.89.26-4.88.78v23.09c1.32.28,2.49.48,3.5.62,1.02.14,1.89.2,2.61.2,2.58,0,4.81-1.09,6.68-3.29s2.81-5.05,2.81-8.54c0-2.4-.45-4.63-1.34-6.7ZM477.93,373.98c-.89-2.06-2.16-3.6-3.8-4.62-1.63-1.03-3.49-1.54-5.58-1.54-1.27,0-2.89.26-4.88.78v23.09c1.32.28,2.49.48,3.5.62,1.02.14,1.89.2,2.61.2,2.58,0,4.81-1.09,6.68-3.29s2.81-5.05,2.81-8.54c0-2.4-.45-4.63-1.34-6.7ZM805.52,637.3c-4.19,2.4-7.01,4.5-8.47,6.31-1.64,2.19-1.82,4.2-.54,6,2.36,3.4,6.19,3.1,11.46-.9,5.28-4.01,11.2-10.21,17.75-18.62-9.28,2.4-16.02,4.81-20.2,7.21ZM805.52,637.3c-4.19,2.4-7.01,4.5-8.47,6.31-1.64,2.19-1.82,4.2-.54,6,2.36,3.4,6.19,3.1,11.46-.9,5.28-4.01,11.2-10.21,17.75-18.62-9.28,2.4-16.02,4.81-20.2,7.21ZM477.93,373.98c-.89-2.06-2.16-3.6-3.8-4.62-1.63-1.03-3.49-1.54-5.58-1.54-1.27,0-2.89.26-4.88.78v23.09c1.32.28,2.49.48,3.5.62,1.02.14,1.89.2,2.61.2,2.58,0,4.81-1.09,6.68-3.29s2.81-5.05,2.81-8.54c0-2.4-.45-4.63-1.34-6.7ZM477.93,373.98c-.89-2.06-2.16-3.6-3.8-4.62-1.63-1.03-3.49-1.54-5.58-1.54-1.27,0-2.89.26-4.88.78v23.09c1.32.28,2.49.48,3.5.62,1.02.14,1.89.2,2.61.2,2.58,0,4.81-1.09,6.68-3.29s2.81-5.05,2.81-8.54c0-2.4-.45-4.63-1.34-6.7ZM805.52,637.3c-4.19,2.4-7.01,4.5-8.47,6.31-1.64,2.19-1.82,4.2-.54,6,2.36,3.4,6.19,3.1,11.46-.9,5.28-4.01,11.2-10.21,17.75-18.62-9.28,2.4-16.02,4.81-20.2,7.21ZM805.52,637.3c-4.19,2.4-7.01,4.5-8.47,6.31-1.64,2.19-1.82,4.2-.54,6,2.36,3.4,6.19,3.1,11.46-.9,5.28-4.01,11.2-10.21,17.75-18.62-9.28,2.4-16.02,4.81-20.2,7.21ZM477.93,373.98c-.89-2.06-2.16-3.6-3.8-4.62-1.63-1.03-3.49-1.54-5.58-1.54-1.27,0-2.89.26-4.88.78v23.09c1.32.28,2.49.48,3.5.62,1.02.14,1.89.2,2.61.2,2.58,0,4.81-1.09,6.68-3.29s2.81-5.05,2.81-8.54c0-2.4-.45-4.63-1.34-6.7ZM477.93,373.98c-.89-2.06-2.16-3.6-3.8-4.62-1.63-1.03-3.49-1.54-5.58-1.54-1.27,0-2.89.26-4.88.78v23.09c1.32.28,2.49.48,3.5.62,1.02.14,1.89.2,2.61.2,2.58,0,4.81-1.09,6.68-3.29s2.81-5.05,2.81-8.54c0-2.4-.45-4.63-1.34-6.7ZM805.52,637.3c-4.19,2.4-7.01,4.5-8.47,6.31-1.64,2.19-1.82,4.2-.54,6,2.36,3.4,6.19,3.1,11.46-.9,5.28-4.01,11.2-10.21,17.75-18.62-9.28,2.4-16.02,4.81-20.2,7.21ZM805.52,637.3c-4.19,2.4-7.01,4.5-8.47,6.31-1.64,2.19-1.82,4.2-.54,6,2.36,3.4,6.19,3.1,11.46-.9,5.28-4.01,11.2-10.21,17.75-18.62-9.28,2.4-16.02,4.81-20.2,7.21ZM477.93,373.98c-.89-2.06-2.16-3.6-3.8-4.62-1.63-1.03-3.49-1.54-5.58-1.54-1.27,0-2.89.26-4.88.78v23.09c1.32.28,2.49.48,3.5.62,1.02.14,1.89.2,2.61.2,2.58,0,4.81-1.09,6.68-3.29s2.81-5.05,2.81-8.54c0-2.4-.45-4.63-1.34-6.7Z"/>
  <path class="cls-1" d="M952.59,210.21c38.06-46.71,70.07-98.49,94.41-155.82,11.27,5.39,22.54,10.62,33.81,16.17,4.25,2.29,8.33,11.27,8.17,16.99-1.47,51.12,1.8,101.43,16.82,150.27,12.9,41.16,32.18,75.62,58.96,102.09-5.23,2.12-10.29,4.25-15.19,6.37-39.36,16.99-82.16,36.1-124.95,48.84-28.75-19.76-48.02-49.49-59.95-87.38-9.8-31.69-12.41-64.35-12.09-97.51Z"/>
  <path class="cls-1" d="M1055,617.74c47.69,23.03,94.73,47.53,141.78,71.38-56.02,28.75-90.16,80.85-106.99,148.64-10.13,40.67-11.43,83.96-15.52,126.1-.98,10.45-2.94,16.17-12.74,20.09-7.68,3.1-15.52,6.37-23.19,9.47-19.6-20.58-38.55-41.98-56.02-64.68-19.44-25.15-42.96-56.51-52.76-90.16,1.31-.49,2.45-1.14,3.76-1.63,7.02-2.78,8.33-6.86,8.98-14.21,2.94-29.89,3.92-60.6,11.11-89.51,14.21-57.49,46.22-99.31,101.6-115.48Z"/>
  <path class="cls-1" d="M1249.37,400.34c-1.31,80.52-2.78,161.21-4.25,241.9-60.27-30.22-120.05-61.9-180.81-90.98.65-34.14,1.14-68.11,1.8-102.25,35.93-12.41,71.21-27.44,105.35-42.3,18.46-8,37.89-16.33,57.33-25.15,6.37,2.61,13.07,5.06,19.93,7.02.33,4.08.82,7.84.65,11.76Z"/>
  <path class="cls-1" d="M97.85,362.93c26.46-79.22,19.6-157.62-5.72-235.04-4.08-12.41-2.61-19.44,5.88-28.42,2.94-3.1,5.88-6.37,8.82-9.47,45.9,42.96,89.02,89.84,137.69,128.87-.65,3.1-.16,6.53,1.31,10.94,17.97,55.04,22.87,110.58,4.08,166.77-7.84,23.36-19.6,43.28-34.3,60.92-59.94-1.96-119.89,2.45-180,7.35,27.28-28.42,48.84-61.74,62.23-101.92Z"/>
</svg>